<svg width="7" height="201" viewBox="0 0 7 201" fill="none" xmlns="http://www.w3.org/2000/svg">
<circle cx="3.5" cy="3.5" r="3.5" fill="#ECECEC"/>
<circle cx="3.5" cy="18.3097" r="3.5" fill="#ECECEC"/>
<circle cx="3.5" cy="33.1194" r="3.5" fill="#ECECEC"/>
<circle cx="3.5" cy="47.9291" r="3.5" fill="#ECECEC"/>
<circle cx="3.5" cy="3.5" r="3.5" fill="#ECECEC"/>
<circle cx="3.5" cy="47.9291" r="3.5" fill="#ECECEC"/>
<circle cx="3.5" cy="62.7388" r="3.5" fill="#ECECEC"/>
<circle cx="3.5" cy="77.5485" r="3.5" fill="#ECECEC"/>
<circle cx="3.5" cy="92.3582" r="3.5" fill="#ECECEC"/>
<circle cx="3.5" cy="107.168" r="3.5" fill="#ECECEC"/>
<circle cx="3.5" cy="62.7388" r="3.5" fill="#ECECEC"/>
<circle cx="3.5" cy="107.168" r="3.5" fill="#ECECEC"/>
<circle cx="3.5" cy="122.5" r="3.5" fill="#ECECEC"/>
<circle cx="3.5" cy="137.31" r="3.5" fill="#ECECEC"/>
<circle cx="3.5" cy="152.119" r="3.5" fill="#ECECEC"/>
<circle cx="3.5" cy="166.929" r="3.5" fill="#ECECEC"/>
<circle cx="3.5" cy="122.5" r="3.5" fill="#ECECEC"/>
<circle cx="3.5" cy="166.929" r="3.5" fill="#ECECEC"/>
<circle cx="3.5" cy="181.739" r="3.5" fill="#ECECEC"/>
<circle cx="3.5" cy="196.549" r="3.5" fill="#ECECEC"/>
<circle cx="3.5" cy="181.739" r="3.5" fill="#ECECEC"/>
</svg>
