<svg width="149" height="28" viewBox="0 0 149 28" fill="none" xmlns="http://www.w3.org/2000/svg">
<path d="M21.78 5.796H13.608V27H8.676V5.796H0.504V1.44H21.78V5.796ZM42.0171 27H37.1931V16.416C37.1931 14.928 36.9171 13.836 36.3651 13.14C35.8131 12.42 35.0331 12.06 34.0251 12.06C33.5931 12.06 33.1371 12.156 32.6571 12.348C32.1771 12.54 31.7211 12.816 31.2891 13.176C30.8571 13.512 30.4611 13.92 30.1011 14.4C29.7411 14.88 29.4771 15.408 29.3091 15.984V27H24.4851V0.719999H29.3091V11.628C30.0051 10.404 30.9411 9.468 32.1171 8.82C33.3171 8.148 34.6371 7.812 36.0771 7.812C37.3011 7.812 38.2971 8.028 39.0651 8.46C39.8331 8.868 40.4331 9.42 40.8651 10.116C41.2971 10.812 41.5971 11.604 41.7651 12.492C41.9331 13.38 42.0171 14.292 42.0171 15.228V27ZM54.9596 27.36C53.4476 27.36 52.0796 27.108 50.8556 26.604C49.6316 26.076 48.5876 25.368 47.7236 24.48C46.8596 23.592 46.1876 22.56 45.7076 21.384C45.2516 20.208 45.0236 18.972 45.0236 17.676C45.0236 16.332 45.2516 15.072 45.7076 13.896C46.1636 12.696 46.8236 11.652 47.6876 10.764C48.5516 9.852 49.5956 9.132 50.8196 8.604C52.0676 8.076 53.4596 7.812 54.9956 7.812C56.5316 7.812 57.8996 8.076 59.0996 8.604C60.3236 9.132 61.3556 9.84 62.1956 10.728C63.0596 11.616 63.7076 12.648 64.1396 13.824C64.5956 15 64.8236 16.224 64.8236 17.496C64.8236 17.808 64.8116 18.108 64.7876 18.396C64.7876 18.684 64.7636 18.924 64.7156 19.116H50.1356C50.2076 19.86 50.3876 20.52 50.6756 21.096C50.9636 21.672 51.3356 22.164 51.7916 22.572C52.2476 22.98 52.7636 23.292 53.3396 23.508C53.9156 23.724 54.5156 23.832 55.1396 23.832C56.0996 23.832 56.9996 23.604 57.8396 23.148C58.7036 22.668 59.2916 22.044 59.6036 21.276L63.7436 22.428C63.0476 23.868 61.9316 25.056 60.3956 25.992C58.8836 26.904 57.0716 27.36 54.9596 27.36ZM59.8556 15.984C59.7356 14.568 59.2076 13.44 58.2716 12.6C57.3596 11.736 56.2436 11.304 54.9236 11.304C54.2756 11.304 53.6636 11.424 53.0876 11.664C52.5356 11.88 52.0436 12.192 51.6116 12.6C51.1796 13.008 50.8196 13.5 50.5316 14.076C50.2676 14.652 50.1116 15.288 50.0636 15.984H59.8556Z" fill="#3C72FF"/>
<path d="M68.2304 27V1.44H85.4024V5.796H73.1984V12.384H83.3504V16.416H73.1984V27H68.2304ZM88.3983 0.719999H93.2223V20.952C93.2223 21.648 93.3903 22.188 93.7263 22.572C94.0623 22.956 94.5423 23.148 95.1663 23.148C95.4543 23.148 95.7663 23.1 96.1023 23.004C96.4623 22.908 96.7983 22.788 97.1103 22.644L97.7583 26.316C97.1103 26.628 96.3543 26.868 95.4903 27.036C94.6263 27.204 93.8463 27.288 93.1503 27.288C91.6383 27.288 90.4623 26.892 89.6223 26.1C88.8063 25.284 88.3983 24.132 88.3983 22.644V0.719999ZM108.572 27.36C107.036 27.36 105.656 27.096 104.432 26.568C103.208 26.04 102.164 25.332 101.3 24.444C100.46 23.532 99.8121 22.488 99.3561 21.312C98.9001 20.136 98.6721 18.9 98.6721 17.604C98.6721 16.284 98.9001 15.036 99.3561 13.86C99.8121 12.684 100.46 11.652 101.3 10.764C102.164 9.852 103.208 9.132 104.432 8.604C105.656 8.076 107.036 7.812 108.572 7.812C110.108 7.812 111.476 8.076 112.676 8.604C113.9 9.132 114.932 9.852 115.772 10.764C116.636 11.652 117.296 12.684 117.752 13.86C118.208 15.036 118.436 16.284 118.436 17.604C118.436 18.9 118.208 20.136 117.752 21.312C117.296 22.488 116.648 23.532 115.808 24.444C114.968 25.332 113.936 26.04 112.712 26.568C111.488 27.096 110.108 27.36 108.572 27.36ZM103.64 17.604C103.64 18.444 103.76 19.212 104 19.908C104.264 20.58 104.612 21.168 105.044 21.672C105.5 22.176 106.028 22.572 106.628 22.86C107.228 23.124 107.876 23.256 108.572 23.256C109.268 23.256 109.916 23.124 110.516 22.86C111.116 22.572 111.632 22.176 112.064 21.672C112.52 21.168 112.868 20.568 113.108 19.872C113.372 19.176 113.504 18.408 113.504 17.568C113.504 16.752 113.372 15.996 113.108 15.3C112.868 14.604 112.52 14.004 112.064 13.5C111.632 12.996 111.116 12.612 110.516 12.348C109.916 12.06 109.268 11.916 108.572 11.916C107.876 11.916 107.228 12.06 106.628 12.348C106.028 12.636 105.5 13.032 105.044 13.536C104.612 14.04 104.264 14.64 104 15.336C103.76 16.032 103.64 16.788 103.64 17.604ZM144.424 8.136H148.996L141.112 27H137.152L133.912 18.72L130.708 27H126.748L118.9 8.136H123.436L129.052 22.464L131.356 16.344L128.044 8.172H131.932L133.912 13.968L135.928 8.172H139.816L136.54 16.344L138.808 22.464L144.424 8.136Z" fill="black"/>
</svg>
